%FSLAX24Y24*%
%MOIN*%
G36*
X37604Y42604D02*
X37708Y42604D01*
X35937Y42604D02*
X35937Y42916D01*
X36041Y42812D01*
X36041Y42604D01*
X21041Y42604D02*
X20937Y42708D01*
X20937Y43125D01*
X21041Y43229D01*
X21145Y43229D01*
X21250Y43333D01*
X21354Y43333D01*
X21458Y43437D01*
X21562Y43437D01*
X21666Y43541D01*
X21770Y43541D01*
X22083Y43854D01*
X22395Y43854D01*
X22500Y43750D01*
X22604Y43750D01*
X22604Y43645D01*
X22708Y43541D01*
X22291Y43125D01*
X22187Y43125D01*
X21770Y42708D01*
X21562Y42708D01*
X21458Y42604D01*
X38541Y42291D02*
X38229Y42604D01*
X38229Y42708D01*
X38437Y42916D01*
X38541Y42916D01*
X38645Y42812D01*
X38854Y42812D01*
X38958Y42708D01*
X39062Y42812D01*
X39270Y42812D01*
X39375Y42708D01*
X39375Y42500D01*
X39062Y42500D01*
X38958Y42604D01*
X38854Y42500D01*
X38750Y42500D01*
X38958Y38437D02*
X28854Y36666D02*
X28750Y36770D01*
X28437Y36770D01*
X28333Y36875D01*
X28333Y36979D01*
X28125Y37187D01*
X28125Y37291D01*
X28020Y37395D01*
X28020Y38229D01*
X27916Y38333D01*
X27916Y38437D01*
X28020Y38541D01*
X28020Y38645D01*
X28125Y38750D01*
X28333Y38750D01*
X28437Y38645D01*
X28645Y38645D01*
X28750Y38750D01*
X29062Y38750D01*
X29166Y38854D01*
X29583Y38854D01*
X29687Y38958D01*
X29791Y38958D01*
X29895Y39062D01*
X29895Y39166D01*
X30000Y39270D01*
X30000Y39375D01*
X30104Y39479D01*
X30104Y40416D01*
X30000Y40520D01*
X29895Y40520D01*
X29791Y40625D01*
X29791Y40729D01*
X29583Y40937D01*
X29479Y40937D01*
X29375Y41041D01*
X29270Y41041D01*
X29270Y41354D01*
X29375Y41458D01*
X29583Y41458D01*
X29687Y41562D01*
X29895Y41562D01*
X30000Y41458D01*
X30104Y41458D01*
X30208Y41562D01*
X30312Y41562D01*
X30416Y41666D01*
X30520Y41666D01*
X30729Y41875D01*
X30729Y42291D01*
X30937Y42500D01*
X30937Y42708D01*
X31041Y42812D01*
X31041Y42916D01*
X31250Y43125D01*
X31354Y43125D01*
X31979Y42500D01*
X32083Y42500D01*
X32187Y42395D01*
X32291Y42395D01*
X32395Y42291D01*
X32604Y42291D01*
X32708Y42187D01*
X32812Y42187D01*
X33020Y41979D01*
X33125Y41979D01*
X33229Y41875D01*
X33229Y41666D01*
X32916Y41354D01*
X33125Y41145D01*
X33125Y41041D01*
X33229Y40937D01*
X33229Y40625D01*
X33125Y40520D01*
X33125Y40312D01*
X33020Y40208D01*
X33020Y40000D01*
X33125Y39895D01*
X33125Y39687D01*
X33020Y39583D01*
X33020Y39479D01*
X32916Y39375D01*
X32916Y39062D01*
X32604Y38750D01*
X32395Y38750D01*
X32291Y38645D01*
X32083Y38645D01*
X31979Y38541D01*
X31666Y38541D01*
X31562Y38645D01*
X31354Y38645D01*
X31145Y38437D01*
X31145Y38020D01*
X31458Y37708D01*
X31770Y37708D01*
X31770Y37604D01*
X31250Y37604D01*
X31145Y37500D01*
X30833Y37500D01*
X30729Y37604D01*
X30729Y37812D01*
X30833Y37916D01*
X30833Y38020D01*
X30937Y38125D01*
X30833Y38229D01*
X30833Y38437D01*
X30625Y38645D01*
X30416Y38645D01*
X30208Y38437D01*
X30312Y38333D01*
X30312Y37812D01*
X30416Y37708D01*
X30312Y37604D01*
X30208Y37604D01*
X30104Y37500D01*
X29791Y37500D01*
X29583Y37291D01*
X29583Y37187D01*
X29479Y37083D01*
X29375Y37083D01*
X29270Y36979D01*
X29166Y36979D01*
X32500Y35625D02*
X32500Y36145D01*
X32395Y36250D01*
X32291Y36250D01*
X32187Y36354D01*
X32083Y36250D01*
X31770Y36250D01*
X31666Y36354D01*
X31562Y36354D01*
X31562Y36458D01*
X31666Y36458D01*
X31770Y36562D01*
X31875Y36562D01*
X31979Y36458D01*
X32812Y36458D01*
X32812Y35625D01*
X39687Y33229D02*
X39687Y33333D01*
X39583Y33437D01*
X39583Y34166D01*
X39687Y34270D01*
X39687Y34375D01*
X39583Y34479D01*
X39583Y34895D01*
X39687Y35000D01*
X39687Y35625D01*
X39583Y35729D01*
X39583Y36145D01*
X39479Y36250D01*
X39479Y36666D01*
X39583Y36770D01*
X39583Y36875D01*
X39479Y36979D01*
X39479Y37291D01*
X39583Y37395D01*
X39583Y37500D01*
X39687Y37604D01*
X39687Y37916D01*
X39791Y37916D01*
X39791Y37604D01*
X39895Y37500D01*
X39895Y37187D01*
X40000Y37083D01*
X40000Y36666D01*
X39895Y36562D01*
X39895Y35833D01*
X39791Y35729D01*
X39791Y34479D01*
X39895Y34375D01*
X39895Y34166D01*
X39791Y34062D01*
X39791Y33229D01*
X38125Y28958D02*
X38437Y28958D01*
X32604Y28437D02*
X32500Y28541D01*
X32395Y28541D01*
X32395Y28645D01*
X32187Y28854D01*
X32291Y28958D01*
X32708Y28958D01*
X32812Y29062D01*
X33020Y29062D01*
X33437Y29479D01*
X33437Y30833D01*
X33333Y30937D01*
X33333Y31250D01*
X33229Y31354D01*
X33229Y31562D01*
X33333Y31666D01*
X33333Y32083D01*
X33437Y32187D01*
X33437Y32500D01*
X33333Y32604D01*
X33333Y32708D01*
X33437Y32812D01*
X33437Y33541D01*
X33333Y33645D01*
X33333Y33854D01*
X33125Y34062D01*
X33125Y34166D01*
X33020Y34270D01*
X32604Y34270D01*
X32500Y34375D01*
X32395Y34375D01*
X32500Y34375D01*
X32604Y34479D01*
X32708Y34479D01*
X33333Y35104D01*
X33333Y35729D01*
X33229Y35833D01*
X33229Y36041D01*
X33333Y36145D01*
X33333Y36250D01*
X33645Y36562D01*
X33750Y36562D01*
X33958Y36770D01*
X34062Y36770D01*
X34166Y36666D01*
X34479Y36666D01*
X34687Y36875D01*
X34895Y36875D01*
X34895Y36770D01*
X35000Y36666D01*
X35000Y36562D01*
X35104Y36458D01*
X35208Y36458D01*
X35312Y36562D01*
X35312Y36666D01*
X35416Y36770D01*
X35416Y36875D01*
X35208Y37083D01*
X35104Y37083D01*
X35104Y37395D01*
X35000Y37500D01*
X34791Y37500D01*
X34687Y37604D01*
X34687Y37916D01*
X34583Y38020D01*
X34583Y38125D01*
X34375Y38333D01*
X34270Y38333D01*
X34166Y38437D01*
X33958Y38437D01*
X33958Y38645D01*
X34166Y38854D01*
X34166Y39062D01*
X33958Y39270D01*
X34062Y39375D01*
X34375Y39375D01*
X34479Y39479D01*
X34791Y39479D01*
X34895Y39583D01*
X35208Y39583D01*
X35520Y39895D01*
X35625Y39895D01*
X35729Y40000D01*
X36041Y40000D01*
X36145Y40104D01*
X36354Y40104D01*
X36562Y40312D01*
X36562Y40729D01*
X36458Y40833D01*
X36458Y41041D01*
X36770Y41041D01*
X36875Y40937D01*
X36875Y40729D01*
X37083Y40520D01*
X37187Y40520D01*
X37291Y40416D01*
X37395Y40416D01*
X37604Y40208D01*
X37812Y40208D01*
X38020Y40416D01*
X38020Y40937D01*
X38125Y41041D01*
X38437Y41041D01*
X38437Y33437D01*
X36875Y33437D01*
X36875Y33541D01*
X36666Y33750D01*
X36666Y33854D01*
X36562Y33958D01*
X36354Y33958D01*
X36250Y33854D01*
X36250Y32812D01*
X36354Y32708D01*
X36250Y32604D01*
X36354Y32500D01*
X36458Y32500D01*
X36458Y32395D01*
X36562Y32291D01*
X36562Y32187D01*
X36458Y32083D01*
X36458Y31458D01*
X36354Y31354D01*
X36354Y31250D01*
X36250Y31145D01*
X36250Y30729D01*
X36354Y30625D01*
X35833Y30104D01*
X35833Y30000D01*
X35729Y29895D01*
X35729Y29791D01*
X35625Y29687D01*
X35625Y29270D01*
X35520Y29166D01*
X35208Y29166D01*
X35104Y29062D01*
X35000Y29062D01*
X34895Y28958D01*
X34791Y28958D01*
X34687Y28854D01*
X34375Y28854D01*
X34270Y28750D01*
X34166Y28750D01*
X34062Y28645D01*
X33541Y28645D01*
X33437Y28541D01*
X33229Y28541D01*
X33125Y28437D01*
X38020Y26458D02*
X38020Y26770D01*
X38125Y26875D01*
X38437Y26875D01*
X38437Y26458D01*
X39687Y25104D02*
X39687Y25208D01*
X16458Y23020D02*
X16458Y23437D01*
X17395Y23437D01*
X17395Y23125D01*
X17291Y23020D01*
X18541Y17812D02*
X18541Y19687D01*
X18437Y19791D01*
X18229Y19791D01*
X18229Y20104D01*
X18020Y20312D01*
X17916Y20208D01*
X17604Y20208D01*
X17500Y20104D01*
X17500Y19791D01*
X17395Y19791D01*
X17291Y19687D01*
X17291Y18958D01*
X16875Y18958D01*
X16875Y20520D01*
X16770Y20625D01*
X16458Y20625D01*
X16458Y21041D01*
X16770Y21041D01*
X16875Y21145D01*
X16875Y21562D01*
X17187Y21562D01*
X17291Y21666D01*
X17291Y21770D01*
X17604Y21458D01*
X17708Y21562D01*
X18229Y21562D01*
X18333Y21666D01*
X18541Y21666D01*
X18645Y21770D01*
X18750Y21770D01*
X19062Y22083D01*
X19375Y22083D01*
X19479Y21979D01*
X19479Y21875D01*
X19687Y21666D01*
X19895Y21666D01*
X20000Y21770D01*
X20104Y21770D01*
X20208Y21875D01*
X20208Y22291D01*
X20104Y22395D01*
X19479Y22395D01*
X19375Y22291D01*
X19062Y22291D01*
X18958Y22395D01*
X18750Y22395D01*
X18645Y22500D01*
X18645Y22604D01*
X18541Y22708D01*
X18541Y23020D01*
X20104Y23020D01*
X20208Y23125D01*
X20208Y23854D01*
X23437Y23854D01*
X23437Y22187D01*
X23541Y22083D01*
X23645Y22187D01*
X23645Y22500D01*
X23854Y22708D01*
X23854Y23020D01*
X24270Y23020D01*
X24270Y21770D01*
X24375Y21666D01*
X24687Y21666D01*
X24791Y21562D01*
X25520Y21562D01*
X25520Y21354D01*
X25208Y21354D01*
X25104Y21250D01*
X25000Y21250D01*
X24791Y21041D01*
X24791Y20937D01*
X24687Y20833D01*
X24687Y20416D01*
X24375Y20416D01*
X24270Y20312D01*
X24270Y19791D01*
X22708Y19791D01*
X22604Y19687D01*
X22604Y19270D01*
X22500Y19166D01*
X22500Y19062D01*
X22395Y19062D01*
X22291Y18958D01*
X22187Y18958D01*
X22083Y18854D01*
X21458Y18854D01*
X21354Y18750D01*
X21250Y18750D01*
X20937Y18437D01*
X20937Y18333D01*
X20729Y18125D01*
X20416Y18125D01*
X20312Y18020D01*
X20104Y18020D01*
X19895Y17812D01*
X30937Y16041D02*
X30937Y16354D01*
X30833Y16458D01*
X30208Y16458D01*
X30208Y16875D01*
X30416Y17083D01*
X30416Y17187D01*
X30625Y17395D01*
X30625Y17500D01*
X30729Y17604D01*
X30729Y18020D01*
X30625Y18125D01*
X30520Y18125D01*
X30312Y18333D01*
X30208Y18333D01*
X30000Y18541D01*
X30000Y18645D01*
X29895Y18750D01*
X29895Y18854D01*
X29687Y19062D01*
X29583Y19062D01*
X29479Y19166D01*
X29375Y19166D01*
X28750Y19791D01*
X28645Y19791D01*
X28541Y19895D01*
X28437Y19895D01*
X28333Y20000D01*
X28229Y20000D01*
X28125Y20104D01*
X28125Y20208D01*
X28020Y20312D01*
X28020Y20416D01*
X27708Y20729D01*
X27708Y20937D01*
X27604Y21041D01*
X27604Y21354D01*
X29895Y21354D01*
X29895Y20729D01*
X30000Y20625D01*
X30000Y20520D01*
X29895Y20416D01*
X29895Y20312D01*
X30000Y20208D01*
X30208Y20208D01*
X30312Y20104D01*
X30208Y20000D01*
X30208Y19895D01*
X30104Y19791D01*
X30208Y19687D01*
X30625Y19687D01*
X30729Y19583D01*
X30833Y19583D01*
X30937Y19479D01*
X31145Y19479D01*
X31250Y19375D01*
X31458Y19375D01*
X31562Y19270D01*
X31562Y19166D01*
X31666Y19062D01*
X31875Y19062D01*
X32291Y18645D01*
X32291Y18541D01*
X32708Y18125D01*
X32812Y18125D01*
X32916Y18020D01*
X33020Y18020D01*
X33125Y17916D01*
X33437Y17916D01*
X33437Y16458D01*
X32291Y16458D01*
X32187Y16354D01*
X32187Y16041D01*
X21354Y16041D02*
X21354Y16666D01*
X21250Y16770D01*
X21250Y17083D01*
X21145Y17187D01*
X21250Y17291D01*
X21354Y17291D01*
X21458Y17395D01*
X21562Y17395D01*
X21875Y17708D01*
X21770Y17812D01*
X21770Y18125D01*
X22083Y18125D01*
X22187Y18229D01*
X22395Y18229D01*
X22500Y18333D01*
X22812Y18333D01*
X22916Y18437D01*
X23020Y18437D01*
X23125Y18541D01*
X23229Y18541D01*
X23333Y18645D01*
X23541Y18645D01*
X23645Y18750D01*
X23854Y18750D01*
X24270Y19166D01*
X24270Y19270D01*
X24479Y19270D01*
X24583Y19375D01*
X24583Y19687D01*
X28020Y19687D01*
X28020Y16041D01*
X18541Y16041D02*
X18541Y17500D01*
X19895Y17500D01*
X20000Y17395D01*
X20000Y17291D01*
X20104Y17187D01*
X20000Y17083D01*
X20000Y16041D01*
X39270Y11250D02*
X39270Y11562D01*
X39375Y11562D01*
X39479Y11458D01*
X39479Y11354D01*
X39375Y11250D01*
X13020Y10625D02*
X13020Y11250D01*
X12916Y11354D01*
X12916Y11562D01*
X13020Y11666D01*
X13020Y11979D01*
X12916Y12083D01*
X12916Y12291D01*
X13020Y12395D01*
X13020Y12500D01*
X13125Y12604D01*
X13125Y12708D01*
X13020Y12812D01*
X13020Y13333D01*
X13125Y13437D01*
X13125Y13645D01*
X13020Y13750D01*
X13020Y14375D01*
X13125Y14479D01*
X13125Y15416D01*
X13229Y15520D01*
X13229Y15937D01*
X13333Y16041D01*
X13333Y16458D01*
X13437Y16562D01*
X13541Y16562D01*
X13645Y16458D01*
X13645Y16250D01*
X13750Y16145D01*
X13750Y16041D01*
X14062Y15729D01*
X14166Y15729D01*
X14270Y15625D01*
X14270Y15520D01*
X13958Y15208D01*
X13958Y14895D01*
X14062Y14791D01*
X14062Y14687D01*
X13958Y14583D01*
X13958Y14479D01*
X13854Y14375D01*
X13854Y14062D01*
X13958Y13958D01*
X13958Y13541D01*
X14166Y13333D01*
X14270Y13333D01*
X14375Y13229D01*
X14375Y12812D01*
X14270Y12708D01*
X14270Y12500D01*
X14375Y12395D01*
X14375Y11562D01*
X14479Y11458D01*
X14479Y11145D01*
X14583Y11041D01*
X14583Y10625D01*
X18125Y8125D02*
X18125Y9791D01*
X18750Y9791D01*
X18854Y9687D01*
X18958Y9687D01*
X19062Y9791D01*
X19062Y9895D01*
X19166Y10000D01*
X19270Y10000D01*
X19375Y10104D01*
X19583Y10104D01*
X19687Y10208D01*
X19791Y10208D01*
X20208Y10625D01*
X20520Y10625D01*
X20625Y10729D01*
X20729Y10729D01*
X20833Y10833D01*
X21145Y10833D01*
X21250Y10729D01*
X21562Y10729D01*
X21666Y10833D01*
X21875Y10833D01*
X22083Y11041D01*
X22083Y11354D01*
X22187Y11458D01*
X22187Y11562D01*
X22291Y11666D01*
X22291Y11770D01*
X22395Y11875D01*
X22395Y11979D01*
X22604Y12187D01*
X23020Y12187D01*
X23125Y12291D01*
X23229Y12291D01*
X23437Y12500D01*
X23541Y12500D01*
X23645Y12395D01*
X23645Y12291D01*
X23750Y12187D01*
X23750Y12083D01*
X23854Y11979D01*
X24166Y11979D01*
X24791Y11354D01*
X24895Y11458D01*
X25208Y11458D01*
X25208Y11145D01*
X25416Y10937D01*
X25729Y10937D01*
X25833Y11041D01*
X26145Y11041D01*
X26250Y10937D01*
X26562Y10937D01*
X26770Y11145D01*
X26979Y11145D01*
X27083Y11041D01*
X27812Y11041D01*
X27916Y11145D01*
X28229Y11145D01*
X28437Y11354D01*
X28437Y11458D01*
X28333Y11562D01*
X28333Y11770D01*
X28229Y11875D01*
X28229Y12395D01*
X28333Y12395D01*
X28437Y12500D01*
X28750Y12500D01*
X28854Y12604D01*
X28958Y12604D01*
X29270Y12291D01*
X29270Y12083D01*
X29166Y11979D01*
X29166Y11875D01*
X28958Y11666D01*
X28958Y11458D01*
X28854Y11354D01*
X28854Y11250D01*
X28750Y11145D01*
X28750Y10937D01*
X28854Y10833D01*
X28854Y10208D01*
X28958Y10104D01*
X29062Y10104D01*
X29166Y10000D01*
X29375Y10000D01*
X29479Y10104D01*
X29583Y10104D01*
X29895Y10416D01*
X29895Y10520D01*
X30104Y10729D01*
X30833Y10729D01*
X30937Y10625D01*
X31354Y10625D01*
X31458Y10729D01*
X31562Y10729D01*
X31666Y10833D01*
X31875Y10833D01*
X31979Y10937D01*
X32083Y10937D01*
X32187Y11041D01*
X32187Y11145D01*
X32291Y11250D01*
X32500Y11250D01*
X32604Y11354D01*
X32604Y11250D01*
X32500Y11145D01*
X32500Y11041D01*
X32604Y10937D01*
X32812Y10937D01*
X32916Y10833D01*
X33437Y10833D01*
X33645Y10625D01*
X33645Y10312D01*
X33750Y10208D01*
X33750Y9791D01*
X33854Y9687D01*
X33854Y9583D01*
X33958Y9479D01*
X34062Y9479D01*
X34270Y9270D01*
X34479Y9479D01*
X34583Y9479D01*
X34687Y9583D01*
X34895Y9583D01*
X35000Y9687D01*
X35937Y9687D01*
X35937Y8125D01*
G37*
M02*
